<?xml version="1.0" encoding="UTF-8"?>
<!DOCTYPE svg PUBLIC "-//W3C//DTD SVG 1.1//EN" "http://www.w3.org/Graphics/SVG/1.1/DTD/svg11.dtd">
<!-- Creator: CorelDRAW X7 -->
<svg xmlns="http://www.w3.org/2000/svg" xml:space="preserve" width="85.596mm" height="18.7658mm" version="1.1" style="shape-rendering:geometricPrecision; text-rendering:geometricPrecision; image-rendering:optimizeQuality; fill-rule:evenodd; clip-rule:evenodd"
viewBox="0 0 8560 1877"
 xmlns:xlink="http://www.w3.org/1999/xlink">
 <defs>
  <style type="text/css">
   <![CDATA[
    .fil0 {fill:white}
   ]]>
  </style>
 </defs>
 <g id="Layer_x0020_1">
  <metadata id="CorelCorpID_0Corel-Layer"/>
  <path class="fil0" d="M0 0l1877 0 0 1019 -389 -282 -1488 1118 0 -1855zm3785 1463l51 0 0 310 -51 0 0 -310zm2768 211c2,10 6,19 11,27 6,9 13,16 22,20 10,6 22,7 34,7 24,0 44,-8 61,-25l2 -2 29 31 -1 1c-25,28 -58,40 -95,40 -21,0 -41,-4 -60,-14 -17,-9 -31,-22 -42,-39 -11,-19 -15,-42 -15,-64 0,-31 8,-60 30,-83 23,-24 53,-33 86,-34 21,0 44,4 63,16 16,11 28,25 36,43 8,19 11,40 11,61l0 15 -172 0zm121 -37c-1,-10 -3,-19 -7,-28 -5,-8 -11,-15 -20,-20 -9,-6 -21,-7 -32,-7 -17,0 -33,4 -44,15 -11,11 -17,25 -19,40l122 0zm-522 -47l-32 0 0 -40 32 0 0 -61 53 0 0 61 67 0 0 40 -67 0 0 106c0,15 5,29 22,29 12,0 23,-4 33,-10l3 -1 13 41 -2 1c-17,11 -35,17 -56,17 -11,0 -22,-2 -32,-7 -10,-4 -19,-12 -25,-21 -7,-12 -9,-27 -9,-41l0 -114zm-326 42c0,-8 -1,-16 -4,-23 -3,-7 -7,-13 -13,-17 -9,-7 -23,-9 -34,-9 -24,0 -47,10 -68,23l-2 1 -19 -38 2 -2c30,-18 62,-28 98,-28 17,0 36,2 52,10 13,7 24,16 31,29 7,13 10,28 10,43l0 150 -53 0 0 -27c-19,21 -45,29 -73,29 -15,0 -31,-3 -44,-10 -12,-6 -21,-15 -27,-26 -6,-11 -9,-23 -9,-36 0,-12 3,-24 10,-35 6,-11 17,-18 28,-24 15,-7 33,-9 50,-10l65 0zm0 59l0 -21 -54 0c-11,0 -26,1 -36,7 -9,5 -12,12 -12,21 0,9 3,17 10,23 8,8 20,10 31,10 14,0 27,-3 39,-10 11,-7 18,-18 22,-30zm-502 -101l-32 0 0 -40 32 0 0 -61 54 0 0 61 66 0 0 40 -66 0 0 106c0,15 4,29 22,29 11,0 23,-4 33,-10l2 -1 13 41 -1 1c-17,11 -36,17 -56,17 -12,0 -22,-2 -33,-7 -10,-4 -18,-12 -24,-21 -8,-12 -10,-27 -10,-41l0 -114zm-349 183c-35,0 -67,-10 -94,-32l-1 -2 19 -38 2 2c22,17 47,28 75,28 9,0 18,-2 26,-6 7,-4 9,-10 10,-17 0,-4 -1,-7 -4,-10 -9,-11 -31,-18 -45,-22 -16,-4 -32,-10 -46,-19 -18,-12 -25,-30 -25,-51 0,-11 2,-21 7,-30 4,-9 11,-16 19,-21 8,-6 17,-10 27,-12 11,-3 22,-4 33,-4 29,0 56,8 81,23l2 2 -20 39 -2 -1c-20,-11 -42,-20 -64,-20 -15,0 -32,3 -32,21 0,7 3,13 9,17 9,6 24,10 35,12 9,3 19,6 28,9 8,3 17,8 24,13 7,6 13,12 18,20 5,9 7,19 7,29 0,11 -2,21 -6,30 -5,8 -11,16 -19,22 -8,6 -18,10 -28,13 -12,3 -24,5 -36,5zm-328 0l-209 0 0 -291 209 0 0 44 -159 0 0 76 140 0 0 48 -140 0 0 74 159 0 0 49zm-1186 -141c-1,-8 -2,-16 -4,-23 -3,-7 -7,-13 -13,-17 -10,-7 -23,-9 -34,-9 -25,0 -48,10 -68,23l-2 1 -20 -38 2 -2c30,-18 63,-28 98,-28 18,0 37,2 53,10 13,7 24,16 31,29 7,13 10,28 10,43l0 150 -53 0 0 -27c-19,21 -45,29 -74,29 -15,0 -30,-3 -44,-10 -11,-6 -20,-15 -26,-26 -6,-11 -9,-23 -9,-36 0,-12 3,-24 9,-35 7,-11 17,-18 29,-24 15,-7 33,-9 49,-10l66 0zm0 59l0 -21 -54 0c-12,0 -27,1 -37,7 -8,5 -11,12 -11,21 0,9 3,17 10,23 8,8 20,10 31,10 13,0 27,-3 38,-10 12,-7 19,-18 23,-30zm-551 -17c2,10 5,19 11,27 5,9 13,16 22,20 10,6 22,7 33,7 24,0 44,-8 61,-25l2 -2 30 31 -2 1c-25,28 -58,40 -95,40 -21,0 -41,-4 -59,-14 -18,-9 -32,-22 -42,-39 -12,-19 -16,-42 -16,-64 0,-31 8,-60 30,-83 23,-24 54,-33 86,-34 22,0 45,4 63,16 17,11 29,25 36,43 8,19 12,40 12,61l-1 15 -171 0zm121 -37c-1,-10 -4,-19 -8,-28 -4,-8 -11,-15 -19,-20 -10,-6 -22,-7 -33,-7 -16,0 -32,4 -44,15 -11,11 -16,25 -18,40l122 0zm-525 46l-20 1 -59 0 0 89 -55 0 0 -301 122 0c30,0 60,6 85,23 27,19 37,48 37,81 0,45 -19,78 -60,96l67 101 -63 0 -54 -90zm-79 -162l0 114 67 0c13,0 25,-1 37,-6 10,-4 18,-10 23,-18 7,-10 9,-22 9,-34 0,-42 -29,-56 -69,-56l-67 0zm363 -1402l-367 0 0 928 367 0c314,0 515,-189 515,-464 0,-277 -201,-464 -515,-464zm5636 131c79,0 134,-54 134,-120 0,-68 -55,-122 -134,-122 -81,0 -135,54 -135,122 0,66 54,120 135,120zm-114 782l226 0 0 -714 -226 0 0 714zm-761 -314c0,-127 74,-197 166,-197l61 0 0 -11 68 0 0 297c0,166 103,235 220,235 91,0 156,-26 205,-45l-47 -162c-35,16 -82,39 -116,25 -33,-13 -36,-37 -36,-68l0 -282 186 0 0 -150 -186 0 0 -199 -226 0 0 199 -68 0 0 -43c-99,0 -178,41 -230,119l0 -114 -228 0 0 710 231 0 0 -314zm-642 -232c76,0 137,51 137,132l-273 0c13,-82 62,-132 136,-132zm315 429l-120 -116c-38,42 -102,74 -164,74 -73,0 -154,-42 -161,-130l484 0c3,-22 4,-45 4,-66 0,-198 -112,-327 -287,-354 -233,-37 -414,98 -434,317 -15,-201 -154,-326 -323,-326 -107,0 -179,49 -220,111l0 -100 -226 0 0 958 226 0 0 -348c41,59 113,109 220,109 168,0 305,-124 323,-324 16,205 161,310 324,322 143,11 255,-23 354,-127zm-907 -237c0,113 -75,182 -160,182 -84,0 -150,-68 -150,-181 0,-113 66,-180 150,-180 85,0 160,66 160,179zm-597 3c0,-226 -167,-367 -384,-367 -215,0 -383,141 -383,367 0,226 164,366 381,366 217,0 386,-140 386,-366zm-537 0c0,-121 71,-178 153,-178 80,0 154,57 154,178 0,120 -76,177 -156,177 -82,0 -151,-57 -151,-177zm-434 37c0,-127 75,-197 167,-197l60 0 0 -204c-99,0 -178,41 -229,119l0 -114 -229 0 0 710 231 0 0 -314zm-807 -126l0 -294 133 0c97,0 170,55 171,152 1,96 -74,142 -171,142l-133 0zm528 -142c-1,-211 -131,-334 -377,-334l-396 0 0 915 237 0 0 -257 159 0c256,0 378,-143 377,-324zm-995 -200c79,0 133,-54 133,-120 0,-68 -54,-122 -133,-122 -81,0 -135,54 -135,122 0,66 54,120 135,120zm-114 782l226 0 0 -714 -226 0 0 714zm-699 -181l0 -539 113 0c180,0 287,100 287,271 0,170 -107,268 -287,268l-113 0zm-785 384l0 642 -1610 0 1220 -921 390 279zm-498 266l141 0 0 -140 -141 0 0 140zm178 0l140 0 0 -140 -140 0 0 140zm0 179l140 0 0 -140 -140 0 0 140zm-178 0l141 0 0 -140 -141 0 0 140z"/>
 </g>
</svg>
